<svg width="40" height="40" viewBox="0 0 40 40" fill="none" xmlns="http://www.w3.org/2000/svg">
<circle cx="20" cy="20" r="19.5" stroke="#E6D8CC"/>
<g clip-path="url(#clip0_2667_1138)">
<path d="M19.9792 11.8014C22.6445 11.8014 22.9574 11.8133 24.0108 11.8608C24.9851 11.9044 25.5118 12.0668 25.8643 12.2054C26.3316 12.3876 26.6643 12.6014 27.0128 12.95C27.3613 13.2985 27.5792 13.6311 27.7574 14.0985C27.892 14.4509 28.0584 14.9777 28.1019 15.9519C28.1495 17.0054 28.1613 17.3183 28.1613 19.9836C28.1613 22.649 28.1495 22.9618 28.1019 24.0153C28.0584 24.9896 27.896 25.5163 27.7574 25.8688C27.5752 26.3361 27.3613 26.6688 27.0128 27.0173C26.6643 27.3658 26.3316 27.5836 25.8643 27.7618C25.5118 27.8965 24.9851 28.0628 24.0108 28.1064C22.9574 28.1539 22.6445 28.1658 19.9792 28.1658C17.3138 28.1658 17.0009 28.1539 15.9475 28.1064C14.9732 28.0628 14.4465 27.9005 14.094 27.7618C13.6267 27.5797 13.294 27.3658 12.9455 27.0173C12.597 26.6688 12.3792 26.3361 12.2009 25.8688C12.0663 25.5163 11.9 24.9896 11.8564 24.0153C11.8089 22.9618 11.797 22.649 11.797 19.9836C11.797 17.3183 11.8089 17.0054 11.8564 15.9519C11.9 14.9777 12.0623 14.4509 12.2009 14.0985C12.3831 13.6311 12.597 13.2985 12.9455 12.95C13.294 12.6014 13.6267 12.3836 14.094 12.2054C14.4465 12.0707 14.9732 11.9044 15.9475 11.8608C17.0009 11.8094 17.3138 11.8014 19.9792 11.8014ZM19.9792 10.0034C17.2703 10.0034 16.9297 10.0153 15.8643 10.0628C14.8029 10.1103 14.0782 10.2806 13.4445 10.5262C12.7871 10.7797 12.2326 11.1242 11.6782 11.6787C11.1237 12.2331 10.7831 12.7915 10.5257 13.445C10.2802 14.0787 10.1099 14.8034 10.0623 15.8688C10.0148 16.9302 10.0029 17.2707 10.0029 19.9797C10.0029 22.6886 10.0148 23.0292 10.0623 24.0945C10.1099 25.1559 10.2802 25.8806 10.5257 26.5183C10.7792 27.1757 11.1237 27.7302 11.6782 28.2846C12.2326 28.8391 12.791 29.1797 13.4445 29.4371C14.0782 29.6826 14.8029 29.8529 15.8683 29.9004C16.9336 29.948 17.2703 29.9599 19.9831 29.9599C22.696 29.9599 23.0326 29.948 24.098 29.9004C25.1594 29.8529 25.8841 29.6826 26.5217 29.4371C27.1792 29.1836 27.7336 28.8391 28.2881 28.2846C28.8425 27.7302 29.1831 27.1717 29.4406 26.5183C29.6861 25.8846 29.8564 25.1599 29.9039 24.0945C29.9514 23.0292 29.9633 22.6925 29.9633 19.9797C29.9633 17.2668 29.9514 16.9302 29.9039 15.8648C29.8564 14.8034 29.6861 14.0787 29.4406 13.441C29.1871 12.7836 28.8425 12.2292 28.2881 11.6747C27.7336 11.1202 27.1752 10.7797 26.5217 10.5222C25.8881 10.2767 25.1633 10.1064 24.098 10.0589C23.0287 10.0153 22.6881 10.0034 19.9792 10.0034Z" fill="#996830"/>
<path d="M19.9792 14.855C17.1514 14.855 14.8544 17.1481 14.8544 19.9797C14.8544 22.8114 17.1514 25.1045 19.9792 25.1045C22.8069 25.1045 25.1039 22.8075 25.1039 19.9797C25.1039 17.152 22.8069 14.855 19.9792 14.855ZM19.9792 23.3065C18.1415 23.3065 16.6524 21.8174 16.6524 19.9797C16.6524 18.1421 18.1415 16.653 19.9792 16.653C21.8168 16.653 23.3059 18.1421 23.3059 19.9797C23.3059 21.8174 21.8168 23.3065 19.9792 23.3065Z" fill="#996830"/>
<path d="M25.3059 15.8491C25.9665 15.8491 26.5019 15.3136 26.5019 14.6531C26.5019 13.9925 25.9665 13.457 25.3059 13.457C24.6453 13.457 24.1099 13.9925 24.1099 14.6531C24.1099 15.3136 24.6453 15.8491 25.3059 15.8491Z" fill="#996830"/>
</g>
<defs>
<clipPath id="clip0_2667_1138">
<rect width="20" height="20" fill="white" transform="translate(10 10)"/>
</clipPath>
</defs>
</svg>
